<svg width="0" height="0" class="hidden">
  <symbol version="1.1" xmlns="http://www.w3.org/2000/svg" viewBox="0 0 1024 1024" id="earth-svgrepo-com">
    <path d="M554.3 475.1m-434.1 0a434.1 434.1 0 1 0 868.2 0 434.1 434.1 0 1 0-868.2 0Z" fill="#44C0C6"></path>
    <path d="M554.3 919.3c-60 0-118.1-11.7-172.9-34.9C328.5 862 281 830 240.2 789.2c-40.8-40.8-72.8-88.3-95.2-141.2-23.2-54.8-34.9-112.9-34.9-172.9S121.9 357 145 302.3c22.4-52.9 54.4-100.4 95.2-141.2s88.3-72.8 141.2-95.2C436.2 42.7 494.3 31 554.3 31s118.1 11.7 172.9 34.9c52.9 22.4 100.4 54.4 141.2 95.2 40.8 40.8 72.8 88.3 95.2 141.2 23.2 54.8 34.9 112.9 34.9 172.9s-11.8 118.1-35 172.8c-22.4 52.9-54.4 100.4-95.2 141.2C827.5 830 780 862 727.2 884.4c-54.8 23.1-113 34.9-172.9 34.9z m0-868.3C497 51 441.5 62.2 389.2 84.3c-50.5 21.4-95.9 51.9-134.8 90.9s-69.5 84.3-90.9 134.8c-22.1 52.3-33.3 107.8-33.3 165.1s11.2 112.8 33.3 165.1c21.4 50.5 51.9 95.9 90.9 134.8s84.3 69.5 134.8 90.9c52.3 22.1 107.8 33.3 165.1 33.3s112.8-11.2 165.1-33.3c50.5-21.4 95.9-51.9 134.8-90.9s69.5-84.3 90.9-134.8c22.1-52.3 33.3-107.8 33.3-165.1S967.2 362.3 945.1 310c-21.4-50.5-51.9-95.9-90.9-134.8s-84.3-69.5-134.8-90.9C667.1 62.2 611.5 51 554.3 51z" fill=""></path>
    <path d="M971.9 357.6C921.6 178.7 760 46.9 566.3 41.6c-53.4 63.2-101.6 146.3 13.6 146.3 185.8 0 137.5 136.9-70.6 146.7-208.1 9.8-149.4 156.5-32.1 171.2s112.5 102.7 112.5 136.9 102.7 14.7 151.6-58.7c48.9-73.4 102.7-151.6 97.8-200.5-3.1-31.2 75.5-30.5 132.8-25.9z" fill="#60C13D"></path>
    <path d="M615.7 669.1c-6.1 0-11.6-0.7-16.3-2.1-12.5-3.8-19.7-12.6-19.7-24.2v-4c0.1-18.1 0.2-45.5-12.6-70.2-15.3-29.4-45.9-47.1-91.1-52.8-31.5-3.9-60.8-17.1-82.5-37-21.5-19.7-33.3-44.4-32.4-67.7 0.6-16.4 7.7-39.8 37.6-58.7 25.6-16.1 62.7-25.5 110.2-27.7 53.3-2.5 101-14.1 134.3-32.7 27.1-15.1 43-34 42.6-50.5-0.3-14.2-12.8-23.5-23.3-28.8-18.9-9.6-47.4-14.7-82.5-14.7-41.1 0-66.8-10.6-76.5-31.4-7.6-16.4-4.6-38.1 8.9-64.7 9.9-19.4 25.5-41.9 46.4-66.7 2-2.3 4.9-3.6 7.9-3.5 48.5 1.3 96 10.4 141.2 27.1 43.8 16.1 84.6 39 121.3 68 36.4 28.7 67.9 62.8 93.8 101.3 26.2 39.1 46 81.8 58.7 127 0.9 3.1 0.2 6.5-1.9 9.1-2.1 2.5-5.3 3.9-8.5 3.6-64.1-5.1-109-1.4-120.2 10-1.5 1.6-2.1 3-1.9 5 5.1 50.5-45.1 125.6-93.6 198.2l-5.9 8.8c-18.2 27.3-45.6 50.4-77.2 65.1-20.2 9.2-40.5 14.2-56.8 14.2zM570.8 51.8c-40.9 49.2-58.4 86.9-49.3 106.4 7.6 16.4 35.9 19.8 58.4 19.8 38.7 0 69.5 5.7 91.5 16.9 21.6 11 33.8 27.4 34.2 46.1 0.6 24.4-18.7 49.4-52.8 68.5-25.4 14.2-70.9 31.9-143.1 35.3-79.1 3.7-127.3 28.8-128.7 67.2-0.7 17.5 8.8 36.5 26 52.2 18.7 17.1 44.1 28.4 71.5 31.9 52.1 6.5 87.8 27.8 106.4 63.4 15.2 29.1 15 60.7 14.9 79.6v3.9c0 1.2 0 3.4 5.5 5 10.4 3.2 32.7 0.9 58.8-11.2 28.2-13.1 52.7-33.7 68.9-58l5.9-8.8c44.4-66.4 94.6-141.8 90.3-185.2-0.8-7.9 1.8-15.2 7.5-21 15.3-15.6 55.1-21.2 121.5-17-12.1-38.1-29.5-74.2-51.9-107.5-24.7-36.7-54.8-69.3-89.6-96.7C745.9 86.5 661 55.2 570.8 51.8z" fill=""></path>
    <path d="M123.8 916.3h89.3s152 68.4 281.8 69.5C672.2 987.2 868.3 871 877.4 864c41.1-31.6 57.3-122.4-103.3-84.2-160.5 38.3-270.3 37.2-313.7-11.2-32-35.7 70.6-45.9 126.6-48.9 26.6-1.4 85.1-23.1 85.1-54.7 0-38.5-54.5-49.7-131.4-49.7-137.7 0-99.7-27.2-179.8-23-80.1 4.3-156.8 89.3-156.8 89.3h-80.3v234.7z" fill="#F7DDAD"></path>
    <path d="M498.1 995.7h-3.4c-68.3-0.6-142.4-19.7-192.5-35.6-47.8-15.2-82.7-30.1-91.3-33.9h-87.1c-5.5 0-10-4.5-10-10V681.7c0-5.5 4.5-10 10-10h76c15.5-16.3 85.6-85.2 160.6-89.2 38.1-2 51.5 2.9 67.1 8.6 17.5 6.4 39.2 14.3 113.2 14.3 43.3 0 75.2 3.6 97.7 10.9 29 9.5 43.7 25.9 43.7 48.8 0 17.9-13.1 34.3-37.9 47.5-17.7 9.4-40.5 16.4-56.7 17.2-113.6 5.9-122.7 24.8-123 25.6-0.6 1.5 1.3 4.4 3.4 6.6 19.3 21.6 54.9 33.3 105.7 34.8 51.1 1.5 117.8-7.5 198.2-26.6 38.9-9.3 70.6-11.8 94.3-7.4 27.8 5.1 39.6 18.7 44.6 29.3 12.9 27.1-3.7 61.9-27.2 79.9-5.8 4.4-58.3 35.7-130.5 65.4-65.1 26.6-161.8 58.3-254.9 58.3z m-364.3-89.4h79.3c1.4 0 2.8 0.3 4.1 0.9 1.5 0.7 151.7 67.5 277.8 68.6 49.9 0.4 133.8-9.1 249.8-56.7 73.3-30.1 123.2-60.5 126.6-63 20.9-16 27.9-41.6 21.3-55.5-5-10.4-26.2-32.4-116.2-11-82.1 19.6-150.5 28.7-203.4 27.2-56.5-1.6-96.9-15.6-120-41.4-10.4-11.6-9.5-21.5-6.9-27.7 5.6-13.4 24.5-22.7 59.5-29.2 27.1-5.1 59-7.5 80.9-8.6 10.9-0.6 30.7-5.5 48.3-14.9 17.4-9.2 27.3-20.1 27.3-29.8 0-26.7-39.7-39.7-121.4-39.7-77.6 0-101.2-8.6-120.1-15.6-14.6-5.3-25.2-9.2-59.1-7.4-75.1 4-149.2 85.1-149.9 86-1.9 2.1-4.6 3.3-7.4 3.3H134v214.5z" fill=""></path>
    <path d="M137.9 916.8H54.1l0.4-232.9h83.8z" fill="#44C0C6"></path>
    <path d="M137.9 926.8H54.1c-2.7 0-5.2-1.1-7.1-2.9s-2.9-4.4-2.9-7.1l0.4-232.9c0-5.5 4.5-10 10-10h83.8c2.7 0 5.2 1.1 7.1 2.9s2.9 4.4 2.9 7.1l-0.4 232.9c0 5.5-4.5 10-10 10z m-73.8-20h63.8l0.4-212.9H64.5l-0.4 212.9z" fill=""></path>
  </symbol>
</svg>