<svg xmlns="http://www.w3.org/2000/svg">
  <defs>
    <!-- astro icon -->
    <symbol id="astro" viewBox="0 0 85 107">
      <path d="M27.5894 91.1365C22.7555 86.7178 21.3444 77.4335 23.3583 70.7072C26.8503 74.948 31.6888 76.2914 36.7005 77.0497C44.4375 78.2199 52.0359 77.7822 59.2232 74.2459C60.0454 73.841 60.8052 73.3027 61.7036 72.7574C62.378 74.714 62.5535 76.6892 62.318 78.6996C61.7452 83.5957 59.3086 87.3778 55.4332 90.2448C53.8835 91.3916 52.2437 92.4167 50.6432 93.4979C45.7262 96.8213 44.3959 100.718 46.2435 106.386C46.2874 106.525 46.3267 106.663 46.426 107C43.9155 105.876 42.0817 104.24 40.6845 102.089C39.2087 99.8193 38.5066 97.3081 38.4696 94.5909C38.4511 93.2686 38.4511 91.9345 38.2733 90.6309C37.8391 87.4527 36.3471 86.0297 33.5364 85.9478C30.6518 85.8636 28.37 87.6469 27.7649 90.4554C27.7187 90.6707 27.6517 90.8837 27.5847 91.1341L27.5894 91.1365Z" fill="#F041FF"/>
      <path d="M0 69.5866C0 69.5866 14.3139 62.6137 28.6678 62.6137L39.4901 29.1204C39.8953 27.5007 41.0783 26.3999 42.4139 26.3999C43.7495 26.3999 44.9325 27.5007 45.3377 29.1204L56.1601 62.6137C73.1601 62.6137 84.8278 69.5866 84.8278 69.5866C84.8278 69.5866 60.5145 3.35233 60.467 3.21944C59.7692 1.2612 58.5911 0 57.0029 0H27.8274C26.2392 0 25.1087 1.2612 24.3634 3.21944C24.3108 3.34983 0 69.5866 0 69.5866Z" fill="currentColor"/>
    </symbol>

    <!-- javascript icon -->
    <symbol id="javascript" viewBox="0 0 630 630">
      <rect width="630" height="630" fill="#f7df1e"/>
      <path fill="black" d="m423.2 492.19c12.69 20.72 29.2 35.95 58.4 35.95 24.53 0 40.2-12.26 40.2-29.2 0-20.3-16.1-27.49-43.1-39.3l-14.8-6.35c-42.72-18.2-71.1-41-71.1-89.2 0-44.4 33.83-78.2 86.7-78.2 37.64 0 64.7 13.1 84.2 47.4l-46.1 29.6c-10.15-18.2-21.1-25.37-38.1-25.37-17.34 0-28.33 11-28.33 25.37 0 17.76 11 24.95 36.4 35.95l14.8 6.34c50.3 21.57 78.7 43.56 78.7 93 0 53.3-41.87 82.5-98.1 82.5-54.98 0-90.5-26.2-107.88-60.54zm-209.13 5.13c9.3 16.5 17.76 30.45 38.1 30.45 19.45 0 31.72-7.61 31.72-37.2v-201.3h59.2v202.1c0 61.3-35.94 89.2-88.4 89.2-47.4 0-74.85-24.53-88.81-54.075z"/>
    </symbol>

    <!-- typescript icon -->
    <symbol id="typescript" fill="none" viewBox="0 0 512 512">
      <rect fill="#3178c6" height="512" rx="50" width="512"/>
      <rect fill="#3178c6" height="512" rx="50" width="512"/>
      <path clip-rule="evenodd" fill="#fff" fill-rule="evenodd" d="m316.939 407.424v50.061c8.138 4.172 17.763 7.3 28.875 9.386s22.823 3.129 35.135 3.129c11.999 0 23.397-1.147 34.196-3.442 10.799-2.294 20.268-6.075 28.406-11.342 8.138-5.266 14.581-12.15 19.328-20.65s7.121-19.007 7.121-31.522c0-9.074-1.356-17.026-4.069-23.857s-6.625-12.906-11.738-18.225c-5.112-5.319-11.242-10.091-18.389-14.315s-15.207-8.213-24.18-11.967c-6.573-2.712-12.468-5.345-17.685-7.9-5.217-2.556-9.651-5.163-13.303-7.822-3.652-2.66-6.469-5.476-8.451-8.448-1.982-2.973-2.974-6.336-2.974-10.091 0-3.441.887-6.544 2.661-9.308s4.278-5.136 7.512-7.118c3.235-1.981 7.199-3.52 11.894-4.615 4.696-1.095 9.912-1.642 15.651-1.642 4.173 0 8.581.313 13.224.938 4.643.626 9.312 1.591 14.008 2.894 4.695 1.304 9.259 2.947 13.694 4.928 4.434 1.982 8.529 4.276 12.285 6.884v-46.776c-7.616-2.92-15.937-5.084-24.962-6.492s-19.381-2.112-31.066-2.112c-11.895 0-23.163 1.278-33.805 3.833s-20.006 6.544-28.093 11.967c-8.086 5.424-14.476 12.333-19.171 20.729-4.695 8.395-7.043 18.433-7.043 30.114 0 14.914 4.304 27.638 12.912 38.172 8.607 10.533 21.675 19.45 39.204 26.751 6.886 2.816 13.303 5.579 19.25 8.291s11.086 5.528 15.415 8.448c4.33 2.92 7.747 6.101 10.252 9.543 2.504 3.441 3.756 7.352 3.756 11.733 0 3.233-.783 6.231-2.348 8.995s-3.939 5.162-7.121 7.196-7.147 3.624-11.894 4.771c-4.748 1.148-10.303 1.721-16.668 1.721-10.851 0-21.597-1.903-32.24-5.71-10.642-3.806-20.502-9.516-29.579-17.13zm-84.159-123.342h64.22v-41.082h-179v41.082h63.906v182.918h50.874z"/>
    </symbol>

    <!-- tailwind icon -->
    <symbol id="tailwind" viewBox="0 0 47 40" fill="none">
      <path fill="#6366f1" d="M23.5 6.5C17.5 6.5 13.75 9.5 12.25 15.5C14.5 12.5 17.125 11.375 20.125 12.125C21.8367 12.5529 23.0601 13.7947 24.4142 15.1692C26.6202 17.4084 29.1734 20 34.75 20C40.75 20 44.5 17 46 11C43.75 14 41.125 15.125 38.125 14.375C36.4133 13.9471 35.1899 12.7053 33.8357 11.3308C31.6297 9.09158 29.0766 6.5 23.5 6.5ZM12.25 20C6.25 20 2.5 23 1 29C3.25 26 5.875 24.875 8.875 25.625C10.5867 26.0529 11.8101 27.2947 13.1642 28.6693C15.3702 30.9084 17.9234 33.5 23.5 33.5C29.5 33.5 33.25 30.5 34.75 24.5C32.5 27.5 29.875 28.625 26.875 27.875C25.1633 27.4471 23.9399 26.2053 22.5858 24.8307C20.3798 22.5916 17.8266 20 12.25 20Z"/>
    </symbol>
  </defs>
</svg>